<svg width="837" height="702" xmlns="http://www.w3.org/2000/svg" xmlns:xlink="http://www.w3.org/1999/xlink" xml:space="preserve" overflow="hidden"><g transform="translate(-1541 -904)"><path d="M1555.12 1505.91C1610.02 1289.86 1739.59 1136.33 1844.53 1162.99L1844.53 1162.99C1949.47 1189.65 1990.04 1386.41 1935.15 1602.47" stroke="#000000" stroke-width="27.5" stroke-miterlimit="8" fill="none" fill-rule="evenodd"/><path d="M1958.83 1427.58C2014.3 1211.67 2144.28 1058.49 2249.15 1085.43L2249.15 1085.43C2354.02 1112.37 2394.07 1309.24 2338.6 1525.15" stroke="#000000" stroke-width="27.5" stroke-miterlimit="8" fill="none" fill-rule="evenodd"/><path d="M2122.6 1007.78C2111.18 1079.44 2025.86 1125.4 1932.04 1110.44L1932.04 1110.44C1838.22 1095.48 1771.42 1025.26 1782.85 953.599" stroke="#000000" stroke-width="27.5" stroke-miterlimit="8" fill="none" fill-rule="evenodd"/><path d="M1917 959.5C1917 936.58 1935.8 918 1959 918 1982.2 918 2001 936.58 2001 959.5 2001 982.42 1982.2 1001 1959 1001 1935.8 1001 1917 982.42 1917 959.5Z" stroke="#000000" stroke-width="27.5" stroke-miterlimit="8" fill="none" fill-rule="evenodd"/></g></svg>